<?xml version="1.0" encoding="utf-8"?>
<!-- Generator: Adobe Illustrator 23.0.1, SVG Export Plug-In . SVG Version: 6.00 Build 0)  -->
<svg version="1.1" id="Layer_1" xmlns="http://www.w3.org/2000/svg" xmlns:xlink="http://www.w3.org/1999/xlink" x="0px" y="0px"
	 viewBox="0 0 603 603" style="enable-background:new 0 0 603 603;" xml:space="preserve">
<style type="text/css">
	.st0{fill:#FFFFFF;stroke:#384E87;stroke-width:4;stroke-miterlimit:10;}
	.st1{fill:#384E87;stroke:#384E87;stroke-width:4;stroke-miterlimit:10;}
	.st2{fill:#D9D9D9;}
	.st3{fill:#20304F;stroke:#131D2D;stroke-miterlimit:10;}
	.st4{fill:url(#SVGID_1_);}
	.st5{fill:#384E87;stroke:#213150;stroke-miterlimit:10;}
	.st6{fill:#384E87;}
	.st7{fill:#213150;}
	.st8{fill:#FFFFFF;stroke:#000000;stroke-miterlimit:10;}
	.st9{stroke:#000000;stroke-miterlimit:10;}
	.st10{fill:#A8A8A8;stroke:#726E6A;stroke-miterlimit:10;}
	.st11{fill:#FFFFFF;}
	.st12{fill:none;stroke:#000000;stroke-miterlimit:10;}
	.st13{fill:#A8A8A8;}
	.st14{fill:#726E6A;stroke:#3F3E3E;stroke-miterlimit:10;}
	.st15{fill:#2D4376;stroke:#20304F;stroke-miterlimit:10;}
	.st16{fill:#F0F1F5;}
	.st17{fill:#162F30;}
	.st18{fill:#757575;}
	.st19{fill:#EFF1F5;}
	.st20{fill:#241213;stroke:#080607;stroke-miterlimit:10;}
	.st21{fill:#842D33;stroke:#080607;stroke-miterlimit:10;}
	.st22{fill:#080607;}
	.st23{fill:#223251;}
	.st24{fill:#20304F;}
	.st25{fill:#131D2D;}
	.st26{fill:#FFFFFF;stroke:#131D2D;stroke-miterlimit:10;}
	.st27{fill:url(#SVGID_2_);}
	.st28{fill:url(#SVGID_3_);}
</style>
<ellipse transform="matrix(0.7071 -0.7071 0.7071 0.7071 -124.8845 301.4992)" class="st0" cx="301.5" cy="301.5" rx="301.29" ry="301.29"/>
<ellipse transform="matrix(0.7071 -0.7071 0.7071 0.7071 -124.8838 301.4989)" class="st1" cx="301.5" cy="301.5" rx="294" ry="294"/>
<g>
	<path class="st2" d="M72.18,477.75l60.46-47.79l0.9,0.85l-20.62,66.75l65.38-24.23l0.89,0.84l-44.58,62.87l-5.42-5.15l32.11-44.75
		l-57.13,20.98l-1.41-1.34l18.07-58.66l-43.29,34.7L72.18,477.75z"/>
	<path class="st2" d="M221.33,494.17l4.02,84.08l-7.62-3.12l-1.59-27.78l-30.42-12.45l-20.51,18.73l-7.87-3.22l62.26-56.95
		L221.33,494.17z M214.3,508.8l-22.56,20.6l24.14,9.88L214.3,508.8z M231.87,474.72l10.32,4.22l-20.21,8.99l-6.62-2.71
		L231.87,474.72z"/>
	<path class="st2" d="M329.48,522.78l-6.06,5.44c-4.14-4.29-8.72-7.58-13.72-9.88c-5.01-2.29-9.91-3.5-14.72-3.63
		c-5.98-0.16-11.71,1.16-17.2,3.96c-5.49,2.8-9.78,6.67-12.88,11.62c-3.1,4.95-4.73,10.23-4.88,15.83
		c-0.15,5.74,1.25,11.23,4.19,16.48c2.94,5.25,7.09,9.42,12.44,12.52c5.35,3.1,11.25,4.73,17.72,4.9c7.85,0.2,14.54-1.83,20.08-6.12
		c5.54-4.28,8.91-9.94,10.09-16.96l-24.32-0.63l0.19-7.36l32.87,0.86c-0.38,11.78-4.12,21.05-11.23,27.8
		c-7.11,6.75-16.47,9.97-28.09,9.67c-14.1-0.37-25.14-5.46-33.12-15.29c-6.13-7.56-9.07-16.2-8.82-25.91
		c0.19-7.22,2.18-13.9,5.97-20.03c3.79-6.13,8.9-10.86,15.31-14.2c6.42-3.34,13.62-4.91,21.6-4.7c6.46,0.17,12.52,1.49,18.16,3.98
		C318.72,513.6,324.19,517.49,329.48,522.78z"/>
	<path class="st2" d="M340.18,505.02l7.44-1.65l16.46,74.49l-7.44,1.64L340.18,505.02z"/>
	<path class="st2" d="M428.96,484.89l-3.4,6.78c-4.87-2.44-9.89-3.64-15.05-3.62c-5.16,0.03-10.24,1.25-15.25,3.69
		c-5.47,2.66-9.91,6.43-13.29,11.33c-3.39,4.89-5.29,10.18-5.7,15.86c-0.41,5.68,0.72,11.29,3.41,16.82
		c4.06,8.37,10.32,13.96,18.78,16.77c8.46,2.81,17.05,2.1,25.79-2.15c9.61-4.67,15.82-12.33,18.64-23l7.41,1.48
		c-1.31,6.02-3.94,11.46-7.9,16.32c-3.96,4.86-9.1,8.83-15.41,11.89c-12,5.83-23.42,6.43-34.23,1.81
		c-9.09-3.92-15.96-10.66-20.59-20.21c-4.88-10.05-5.46-20.21-1.75-30.49c3.71-10.28,10.87-17.99,21.48-23.14
		c6.41-3.11,12.81-4.65,19.2-4.63C417.49,480.42,423.45,481.92,428.96,484.89z"/>
	<path class="st2" d="M448.4,445.45l79.48,27.72l-5.74,5.9l-26.36-8.91l-22.93,23.55l9.7,26.03l-5.93,6.09l-29.52-79.04
		L448.4,445.45z M459.35,457.45l10.67,28.63l18.19-18.69L459.35,457.45z"/>
</g>
<ellipse transform="matrix(0.7071 -0.7071 0.7071 0.7071 -124.8845 301.4992)" class="st2" cx="301.5" cy="301.5" rx="190.19" ry="190.19"/>
<g>
	<path class="st2" d="M167.17,51.34l71.89,53.19l-7.69,4.17l-23.93-17.35l-30.68,16.66l1.63,29.46l-7.94,4.31l-5.02-89.5
		L167.17,51.34z M174.49,66.96l1.79,32.41l24.35-13.22L174.49,66.96z"/>
	<path class="st2" d="M234.59,24.27l8.02-1.14l6.9,48.44c0.82,5.75,1.44,9.31,1.86,10.7c0.85,3.11,2.15,5.62,3.91,7.54
		c1.76,1.92,4.25,3.38,7.47,4.39c3.22,1.01,6.36,1.29,9.42,0.86c2.65-0.38,5.12-1.3,7.4-2.78c2.28-1.47,4.09-3.33,5.44-5.56
		c1.35-2.23,2.21-4.82,2.57-7.77c0.25-2.11-0.07-6.33-0.97-12.66l-6.9-48.44l8.02-1.14l6.9,48.44c1.02,7.16,1.14,13.05,0.37,17.67
		c-0.77,4.62-3.02,8.86-6.76,12.73c-3.73,3.87-8.58,6.23-14.55,7.08c-6.47,0.92-12.24,0.17-17.3-2.27
		c-5.06-2.43-8.73-6.08-11.02-10.95c-1.43-2.99-2.72-8.55-3.88-16.7L234.59,24.27z"/>
	<path class="st2" d="M325.16,18.17l8.02,1.13l-10.21,72.51l30.88,4.35l-1.09,7.75l-38.9-5.47L325.16,18.17z"/>
	<path class="st2" d="M437.83,52.54l-5.48,89.26l-7.69-4.18l1.53-29.52l-30.68-16.67l-23.83,17.41l-7.94-4.31l72.34-52.94
		L437.83,52.54z M428.71,67.19L402.5,86.34l24.35,13.23L428.71,67.19z"/>
</g>
<g>
	<g>
		<path class="st3" d="M354.4,218.41c0,0-15.36-3.58-17.08-10.13c-0.48-1.81-0.13-3.3-0.69-5.48c-0.9-3.5-9.83-7.91-7.09-11.72
			c0.66-0.92-0.63-9.12-0.63-9.12s-6.64-6.86-7.24-9.85c-0.53-2.67-4.1-10.42-7.14-18.48c-5.15-13.63-10.58-30.75-14.9-31.49
			c0,0-4.05-2.75-6.56,1.33c-2.52,4.08-10.76,3.66-10.76,3.66s-5.7-2.91-7.61-1.54c-1.91,1.38-38.22,36.38-41.85,54.65
			c-3.63,18.23,16.11-16.6,39.72-25.28c0,0-3.87,7.33-5.22,17.41c-1.36,10.09-7.89,16.76-9.24,24.18
			c-1.35,7.41-6.27,14.35-10.39,18.75c-4.11,4.4-4.18,9.12-4.13,12.26C243.58,227.57,267.94,242.66,354.4,218.41z"/>
		<path class="st3" d="M235.62,272.01c0,0-63.78,2.09-59.19-12.82c4.59-14.9,16.63-25.07,61.12-31.39
			c44.49-6.31,87.53-8.64,121.12-8.89c33.58-0.24,67.57,6.84,68.1,16.16c0,0,2.74,4.61-51.72,15.07
			C320.6,260.62,235.62,272.01,235.62,272.01z"/>
	</g>
	
		<linearGradient id="SVGID_1_" gradientUnits="userSpaceOnUse" x1="287.5012" y1="371.9669" x2="286.3884" y2="363.9924" gradientTransform="matrix(0.997 -0.0772 0.0772 0.997 46.4417 -101.1025)">
		<stop  offset="0" style="stop-color:#1F304E"/>
		<stop  offset="1" style="stop-color:#121C2C"/>
	</linearGradient>
	<path class="st4" d="M305.73,242.65c0,0,22.74,9.42,77.16,1.37c54.42-8.06,26.49-8.45,5.35-10.19
		C367.09,232.09,340.33,231.64,305.73,242.65z"/>
	<g>
		<g>
			<g>
				<g>
					<g>
						<path class="st5" d="M346.29,337.21c-0.12,1.48,0.55,3.11,3.25,4.56c0,0,5.59,2.11,20.34,9.21
							c14.75,7.09,15.92,7.45,18.66,5.83c2.74-1.62,8.43-7.58,11.55-26.42c0,0-2.2-5.38-7.25-2.87c0,0-3.43,8.37-6.27,11.67
							c-2.84,3.3-3.46,4.29-3.46,4.29s-8.44-3.88-16.93-12.48C366.18,330.99,348.58,307.76,346.29,337.21z"/>
						<g>
							<path class="st6" d="M387.1,344.67c0,0-5.15-1.15-8.1-3.48"/>
							<path class="st7" d="M387.1,344.67c0,0-0.58,0.04-1.42-0.08c-0.42-0.05-0.9-0.16-1.42-0.29c-0.51-0.12-1.04-0.33-1.57-0.52
								c-0.51-0.24-1.03-0.46-1.49-0.74c-0.45-0.29-0.87-0.56-1.2-0.83c-0.64-0.58-0.99-1.03-0.99-1.03s0.56,0.18,1.29,0.54
								c0.39,0.15,0.83,0.32,1.29,0.53c0.23,0.11,0.49,0.18,0.73,0.29c0.25,0.1,0.5,0.21,0.75,0.31c0.51,0.2,1.01,0.41,1.48,0.61
								c0.48,0.19,0.91,0.4,1.29,0.57C386.6,344.39,387.1,344.67,387.1,344.67z"/>
						</g>
					</g>
				</g>
			</g>
			<path class="st8" d="M392.86,324.52c0,0-2.38,3.62,2.93,5.02c5.31,1.4,7.28-0.12,6.13-3.43
				C400.61,322.35,392.86,324.52,392.86,324.52z"/>
			<path class="st8" d="M391.69,302.42c0,0-2.38-3.96-7.19-2.51c-4.8,1.45-4.42,3.77-2.36,4.63c2.06,0.86,6.94,1.3,9.94,6.15
				c0,0-0.56,6.2-1.01,8.44c-0.45,2.24,0.59,6.15,5.66,7.49c5.07,1.33,6.35-1.61,7.98-3.75c1.63-2.14,6.63-7.03,7.87-8.49
				c1.24-1.46,2.39-3.65,1.67-6.34c-0.72-2.69-0.63-4.66-3.12-6.32c0,0-0.16-4.82,0.03-6.63c0.19-1.8,0.41-3.18-3.35-4.09
				c-3.76-0.92-6.31-1.52-8.48-2.23c-2.17-0.71-3.58-1.3-4.7,2.69C394.65,291.44,392.65,299.58,391.69,302.42z"/>
			<g>
				<path class="st8" d="M379.5,258.37c0.81-0.35,1.34-0.93,1.18-1.3l-4.92-11.53l-2.94,1.25l4.92,11.53l0,0
					C377.9,258.69,378.69,258.71,379.5,258.37z"/>
				<path class="st8" d="M412.82,332.43L412.82,332.43L412.82,332.43L412.82,332.43l0-0.01l-4.38-10.27
					c0.16,0.37-0.38,0.95-1.18,1.3c-0.81,0.34-1.59,0.33-1.75-0.05l0,0l4.38,10.29h0c0.17,0.36,0.95,0.38,1.75,0.04
					C412.44,333.37,412.97,332.8,412.82,332.43z"/>
				<path class="st9" d="M407.25,323.44c0.81-0.35,1.34-0.93,1.18-1.3l-27.76-65.08c0.16,0.37-0.37,0.95-1.18,1.3
					c-0.81,0.34-1.6,0.32-1.76-0.05l0,0l27.76,65.08l0,0C405.66,323.77,406.44,323.78,407.25,323.44z"/>
				<path class="st10" d="M374.59,246.87c-0.81,0.35-1.6,0.32-1.76-0.05c-0.16-0.37,0.37-0.95,1.18-1.3
					c0.81-0.35,1.59-0.33,1.75,0.04C375.93,245.94,375.4,246.52,374.59,246.87z"/>
			</g>
			<path class="st11" d="M405.46,311.81c0,0-4.03,0.74-4.17,3.08l-7.88-16.22c0,0,0.6-7.3,2.32-8.95L405.46,311.81z"/>
			<g>
				<g>
					<path d="M401.14,315.23c0,0-0.42,0.18-1.03,0.57c-0.61,0.38-1.38,0.96-2.01,1.67c-0.32,0.36-0.59,0.75-0.8,1.15
						c-0.09,0.21-0.21,0.39-0.26,0.59c-0.05,0.2-0.14,0.38-0.16,0.56c-0.07,0.36-0.1,0.66-0.08,0.88c0,0.21,0,0.34,0,0.34
						s-0.02-0.12-0.05-0.34c-0.05-0.21-0.05-0.52-0.03-0.9c0-0.19,0.06-0.39,0.09-0.61c0.03-0.22,0.13-0.43,0.19-0.66
						c0.17-0.45,0.41-0.9,0.7-1.32c1.16-1.71,2.96-2.81,2.96-2.81L401.14,315.23z"/>
				</g>
				<path class="st12" d="M394.31,306.67c0,0-2.91-0.71-2.62-4.25"/>
				<path class="st12" d="M411.15,301.71c0,0-1.64-1.08-5.01,0.32c-3.37,1.4-8.76,5.08-8.71,7.32c0.05,2.25,1.36,5.16,4.33,5.66
					c0,0-1.09-1.15,1.52-2.39"/>
				<g>
					<path d="M401.76,315.02c0.01-0.01-0.15-0.06-0.32-0.3c-0.06-0.13-0.16-0.3-0.14-0.53c-0.01-0.12,0.01-0.23,0.06-0.34
						c0.05-0.11,0.08-0.26,0.16-0.35c0.15-0.19,0.32-0.45,0.55-0.6c0.21-0.17,0.47-0.38,0.71-0.5c0.24-0.13,0.53-0.29,0.8-0.4
						c0.28-0.11,0.56-0.23,0.84-0.34c1.13-0.41,2.27-0.7,3.06-1.01c0.4-0.15,0.7-0.33,0.87-0.5c0.18-0.17,0.22-0.33,0.23-0.33
						c-0.02-0.01,0.05,0.16-0.06,0.43c-0.04,0.14-0.14,0.29-0.27,0.45c-0.13,0.15-0.29,0.31-0.48,0.45
						c-0.76,0.58-1.9,1.04-3.01,1.45c-0.27,0.1-0.55,0.2-0.82,0.3c-0.27,0.11-0.51,0.18-0.77,0.3c-0.27,0.11-0.45,0.21-0.68,0.32
						c-0.23,0.1-0.36,0.23-0.53,0.35c-0.09,0.06-0.11,0.13-0.17,0.19c-0.07,0.06-0.11,0.13-0.12,0.2c-0.07,0.13-0.06,0.27-0.05,0.39
						C401.66,314.88,401.76,315.02,401.76,315.02z"/>
				</g>
				<path class="st12" d="M397.43,309.36c0,0-3.98-2.25-3.52-4.27c0.46-2.02,0.29-2.19,1.91-2.91c0,0,2.69-1.29,3.51-2.22"/>
				<g>
					<path d="M402.66,297.33c-0.08,0.4-0.25,0.78-0.47,1.12c-0.1,0.18-0.22,0.35-0.36,0.5c-0.13,0.16-0.26,0.33-0.42,0.46
						l-0.47,0.41c-0.17,0.12-0.36,0.22-0.53,0.33c-0.35,0.23-0.77,0.33-1.16,0.48l-1.87,0.74l1.38-1.53
						c0.15-0.17,0.34-0.36,0.49-0.55c0.15-0.2,0.31-0.39,0.43-0.6c0.14-0.21,0.23-0.42,0.28-0.64c0.03-0.12,0.03-0.23,0.02-0.35
						c-0.01-0.13-0.06-0.25-0.12-0.38l0.18,0.12c0.07,0.04,0.1,0.11,0.15,0.17c0.09,0.12,0.16,0.28,0.18,0.43
						c0.07,0.31,0.02,0.64-0.06,0.92c-0.09,0.29-0.2,0.57-0.35,0.82c-0.15,0.25-0.3,0.49-0.51,0.72l-0.49-0.79l0.49-0.21
						c0.16-0.07,0.33-0.12,0.49-0.21c0.16-0.08,0.31-0.18,0.47-0.25l0.45-0.29c0.16-0.09,0.3-0.2,0.45-0.31
						c0.15-0.11,0.31-0.21,0.44-0.34C402.08,297.87,402.35,297.61,402.66,297.33z"/>
				</g>
			</g>
			<path class="st12" d="M395.54,289.26c0,0-1.6,2.66-2.02,6.64"/>
		</g>
		<g>
			<g>
				<path class="st13" d="M352.47,257.26c-4.43,41.2-4.43,81.72,0,122.92c0.72,5.91,2.79,11.45-3.18,12.37
					c-34.3,5.3-66.11,9.99-99.98,16.84c-5.97,0.92-14.61-5.32-15.52-12.81c-5.76-52.08-5.77-103.63,0-155.7
					c0.91-7.49,11.48-13.86,17.45-12.94c34.3,5.3,63.75,11.66,98.05,16.96C355.26,245.81,353.19,251.34,352.47,257.26z"/>
			</g>
		</g>
		<path class="st14" d="M316.51,418.38c0,0,8.36-7.59,22.03-0.54c0,0,2.71,7.02-7.81,5.79C320.2,422.39,314.12,423.7,316.51,418.38z
			"/>
		<path class="st15" d="M326.3,392.98c0,0,5.56,20.83,6.62,26.98c1,5.85-7.43,6.02-8.81,3.66c-1.3-2.22-6.61-26.52-6.06-31.51
			C318.59,387.12,326.3,392.98,326.3,392.98z"/>
		<path class="st14" d="M259.93,420.88c-1.3,1.74,3.04,5.51,11.72,6.66c8.68,1.15,11.73-0.16,11.44-0.84
			c-0.29-0.69-1.22-3.94-5.46-5.82C273.39,418.99,261.31,419.03,259.93,420.88z"/>
		<path class="st15" d="M282.12,399.24c0,0-3.99,11.87-7.17,31.11c0,0-7.69,2.94-9.84-1.74c0,0,4.49-24.74,9.11-32.27
			C274.22,396.35,282.29,396.21,282.12,399.24z"/>
		<path class="st14" d="M259.56,433.36c0,0-9.82,8.29-13.36,30.87c-0.33,2.08-0.05,10.26,7.88,9.57c1.68-0.14,16.06,0,16.06,0
			s18.88-1.23,9.66-35.9C279.81,437.9,267.64,428.75,259.56,433.36z"/>
		<path class="st5" d="M259.56,429.3c0,0-9.82,8.29-13.36,30.86c-0.33,2.09-0.05,10.26,7.88,9.58c1.68-0.15,16.06,0,16.06,0
			s18.88-1.23,9.66-35.9C279.81,433.84,267.64,424.69,259.56,429.3z"/>
		<path class="st16" d="M248.32,450.42c0,0,4.9-8.06,17.06-8.06c10.53,0,13.02,11.05,14.43,20.28c0,0,2.54-5.41,2.49-10.14
			c-0.05-4.72-2.6-19.04-13.55-19.93c-11.03-0.9-13.9,2.9-14.8,4.13C251.7,439.81,248.32,448.89,248.32,450.42z"/>
		<path class="st10" d="M259.95,420.88c0,0-4.99,5.79,0.68,9.5c6.84-0.02,8-0.74,17.77,3.74c1.87,0.86,6.73-5.25,3.94-9.08
			C282.34,425.03,268.41,428.69,259.95,420.88z"/>
		<g>
			<g>
				<path class="st5" d="M348.81,243.66c-32.87-5.09-65.73-10.19-98.6-15.28c-5.72-0.89-11.05,3.2-11.79,9.14
					c-3.01,26.26-4.68,52.42-5.03,78.86c40.21,0.15,80.41,0.31,120.62,0.47c0.35-21.14,1.69-41.99,4.02-63
					C358.62,249.11,354.53,244.54,348.81,243.66z"/>
				<path class="st17" d="M251.17,242.04c32.2,4.24,64.4,8.48,96.61,12.73c0.1-0.86,0.16-1.28,0.26-2.13
					c-33.23-4.52-66.45-9.05-99.67-13.57c-2.6,22.7-4.19,45.32-4.83,68.16c1.26,0.02,1.88,0.04,3.14,0.06
					C247.08,285.48,248.58,263.7,251.17,242.04z"/>
				<path class="st5" d="M354.02,316.85c0.19,22.39,1.52,44.48,4.02,66.73c0.59,4.75-3.5,9.3-9.22,10.19
					c-32.87,5.1-65.73,10.19-98.6,15.29c-5.72,0.89-11.05-3.2-11.79-9.14c-3.17-27.83-4.84-55.52-5.03-83.54
					C273.6,316.54,313.81,316.69,354.02,316.85z"/>
				<path class="st18" d="M344.04,309.19c-32.45-0.63-64.9-1.27-97.36-1.9c0.39-21.8,1.88-43.59,4.49-65.25
					c32.2,4.24,64.4,8.49,96.61,12.73C345.62,272.83,344.37,290.99,344.04,309.19z"/>
				<g>
					<g>
						<path class="st13" d="M265.94,370.91c0.09,1.13-0.76,2.14-1.91,2.25c-6.35,0.61-9.52,0.91-15.87,1.52
							c-1.16,0.11-2.17-0.75-2.27-1.92c-0.53-6.36-0.76-9.54-1.14-15.91c-0.07-1.17,0.82-2.18,1.97-2.25
							c6.36-0.39,9.55-0.59,15.91-0.97c1.16-0.07,2.14,0.79,2.21,1.92C265.2,361.69,265.42,364.77,265.94,370.91z"/>
						<path class="st13" d="M292.15,368.44c0.09,1.08-0.77,2.04-1.92,2.15c-6.35,0.61-9.52,0.91-15.87,1.52
							c-1.16,0.11-2.17-0.71-2.26-1.83c-0.51-6.08-0.73-9.12-1.08-15.2c-0.07-1.13,0.82-2.09,1.98-2.16
							c6.36-0.39,9.55-0.58,15.91-0.97c1.15-0.07,2.14,0.75,2.2,1.83C291.45,359.65,291.65,362.58,292.15,368.44z"/>
						<path class="st13" d="M318.35,365.98c0.09,1.02-0.77,1.95-1.93,2.06c-6.35,0.61-9.52,0.91-15.87,1.51
							c-1.15,0.11-2.16-0.67-2.25-1.73c-0.48-5.79-0.69-8.69-1.03-14.49c-0.06-1.07,0.83-1.99,1.98-2.06
							c6.37-0.39,9.54-0.58,15.91-0.97c1.16-0.07,2.14,0.71,2.2,1.74C317.69,357.61,317.89,360.4,318.35,365.98z"/>
					</g>
					<g>
						<path class="st13" d="M268.55,395.98c0.14,1.13-0.67,2.18-1.82,2.34c-6.32,0.89-9.48,1.33-15.79,2.22
							c-1.15,0.16-2.2-0.66-2.35-1.83c-0.79-6.34-1.15-9.51-1.78-15.87c-0.12-1.17,0.72-2.22,1.88-2.34c6.34-0.67,9.52-1,15.86-1.67
							c1.15-0.12,2.17,0.7,2.29,1.83C267.45,386.79,267.79,389.85,268.55,395.98z"/>
						<path class="st13" d="M294.64,392.35c0.13,1.08-0.69,2.08-1.83,2.24c-6.32,0.89-9.48,1.33-15.8,2.22
							c-1.15,0.16-2.19-0.61-2.33-1.73c-0.75-6.06-1.1-9.09-1.7-15.16c-0.11-1.12,0.73-2.13,1.89-2.25c6.34-0.67,9.51-1,15.86-1.67
							c1.15-0.12,2.17,0.66,2.28,1.73C293.58,383.58,293.91,386.51,294.64,392.35z"/>
						<path class="st13" d="M320.72,388.73c0.13,1.03-0.7,1.98-1.84,2.15c-6.32,0.89-9.48,1.33-15.8,2.21
							c-1.15,0.16-2.19-0.57-2.32-1.63c-0.72-5.77-1.04-8.66-1.62-14.45c-0.11-1.07,0.75-2.03,1.9-2.16c6.34-0.67,9.51-1,15.86-1.67
							c1.15-0.12,2.17,0.61,2.27,1.64C319.72,380.39,320.03,383.17,320.72,388.73z"/>
					</g>
					<g>
						<path class="st13" d="M264.34,345.78c0.05,1.13-0.85,2.1-2,2.16c-6.37,0.33-9.55,0.49-15.92,0.82
							c-1.16,0.06-2.14-0.85-2.19-2.02c-0.28-6.37-0.38-9.56-0.5-15.94c-0.02-1.18,0.9-2.14,2.06-2.16
							c6.37-0.11,9.56-0.16,15.94-0.27c1.16-0.02,2.11,0.88,2.13,2.02C263.98,336.54,264.07,339.62,264.34,345.78z"/>
						<path class="st13" d="M290.62,344.47c0.04,1.08-0.85,2.01-2.01,2.06c-6.37,0.33-9.55,0.49-15.92,0.82
							c-1.16,0.06-2.14-0.8-2.19-1.92c-0.26-6.09-0.36-9.13-0.47-15.22c-0.02-1.12,0.9-2.05,2.06-2.07
							c6.37-0.11,9.56-0.16,15.94-0.27c1.16-0.02,2.11,0.84,2.13,1.93C290.28,335.66,290.37,338.6,290.62,344.47z"/>
						<path class="st13" d="M316.91,343.17c0.05,1.03-0.85,1.91-2.01,1.97c-6.37,0.32-9.55,0.49-15.92,0.81
							c-1.16,0.06-2.13-0.76-2.18-1.83c-0.25-5.8-0.34-8.71-0.45-14.51c-0.02-1.07,0.9-1.95,2.06-1.97
							c6.37-0.11,9.56-0.15,15.94-0.26c1.16-0.02,2.11,0.8,2.13,1.83C316.58,334.79,316.67,337.58,316.91,343.17z"/>
						<path class="st13" d="M343.2,341.97c0.04,0.98-0.86,1.82-2.01,1.88c-6.37,0.32-9.55,0.49-15.92,0.81
							c-1.16,0.06-2.13-0.72-2.18-1.74c-0.24-5.52-0.32-8.28-0.43-13.8c-0.02-1.02,0.91-1.86,2.07-1.88
							c6.38-0.11,9.56-0.16,15.94-0.27c1.16-0.02,2.1,0.76,2.12,1.73C342.88,334.02,342.97,336.67,343.2,341.97z"/>
					</g>
					<path class="st13" d="M341.43,348.69c-6.36,0.39-9.55,0.58-15.91,0.97c-1.16,0.07-2.05,0.95-1.99,1.97
						c0.85,12.14,1.96,24.17,3.32,36.26c0.13,1.01,1.16,1.7,2.31,1.54c6.32-0.89,9.48-1.33,15.8-2.21c1.14-0.16,1.97-1.08,1.85-2.05
						c-1.44-11.57-2.5-23.19-3.19-34.83C343.57,349.35,342.59,348.62,341.43,348.69z"/>
				</g>
				<g>
					<g>
						<path class="st16" d="M266.42,370.09c0.09,1.13-0.76,2.14-1.92,2.25c-6.35,0.6-9.52,0.9-15.87,1.5
							c-1.15,0.11-2.17-0.75-2.27-1.92c-0.53-6.36-0.75-9.54-1.12-15.9c-0.07-1.17,0.82-2.18,1.97-2.25
							c6.37-0.38,9.55-0.57,15.91-0.96c1.15-0.07,2.14,0.8,2.21,1.93C265.69,360.88,265.91,363.96,266.42,370.09z"/>
						<path class="st16" d="M292.63,367.66c0.09,1.08-0.77,2.04-1.92,2.15c-6.35,0.6-9.52,0.9-15.87,1.49
							c-1.15,0.11-2.17-0.71-2.26-1.83c-0.5-6.07-0.71-9.1-1.06-15.18c-0.06-1.12,0.82-2.09,1.98-2.16
							c6.37-0.38,9.55-0.57,15.91-0.95c1.16-0.07,2.14,0.75,2.2,1.83C291.94,358.88,292.14,361.8,292.63,367.66z"/>
						<path class="st16" d="M318.84,365.23c0.09,1.03-0.78,1.94-1.93,2.05c-6.35,0.6-9.52,0.9-15.88,1.49
							c-1.15,0.11-2.16-0.67-2.25-1.73c-0.48-5.79-0.68-8.68-1.02-14.48c-0.06-1.07,0.83-1.99,1.98-2.06
							c6.37-0.38,9.55-0.57,15.91-0.95c1.16-0.07,2.14,0.71,2.2,1.74C318.19,356.87,318.38,359.66,318.84,365.23z"/>
					</g>
					<g>
						<path class="st16" d="M268.99,395.14c0.14,1.13-0.67,2.17-1.82,2.33c-6.32,0.88-9.48,1.32-15.8,2.2
							c-1.15,0.16-2.2-0.66-2.34-1.83c-0.78-6.33-1.13-9.51-1.76-15.85c-0.11-1.17,0.73-2.21,1.88-2.34
							c6.34-0.66,9.52-0.99,15.86-1.66c1.15-0.12,2.17,0.7,2.28,1.83C267.9,385.96,268.24,389.02,268.99,395.14z"/>
						<path class="st16" d="M295.08,391.55c0.13,1.08-0.69,2.08-1.84,2.24c-6.32,0.88-9.48,1.32-15.8,2.2
							c-1.15,0.16-2.19-0.62-2.33-1.73c-0.75-6.05-1.08-9.08-1.68-15.14c-0.11-1.12,0.74-2.13,1.89-2.24
							c6.34-0.66,9.51-0.99,15.86-1.65c1.15-0.12,2.17,0.66,2.28,1.74C294.04,382.79,294.36,385.71,295.08,391.55z"/>
						<path class="st16" d="M321.17,387.96c0.13,1.02-0.7,1.98-1.85,2.14c-6.32,0.88-9.48,1.32-15.8,2.19
							c-1.15,0.16-2.19-0.58-2.32-1.64c-0.71-5.77-1.03-8.65-1.6-14.44c-0.11-1.07,0.75-2.03,1.9-2.15
							c6.34-0.66,9.52-0.99,15.86-1.65c1.15-0.12,2.17,0.62,2.27,1.64C320.18,379.63,320.49,382.41,321.17,387.96z"/>
					</g>
					<g>
						<path class="st16" d="M264.85,344.99c0.05,1.13-0.85,2.09-2.01,2.15c-6.37,0.32-9.55,0.48-15.92,0.8
							c-1.16,0.06-2.14-0.85-2.19-2.02c-0.27-6.37-0.36-9.55-0.47-15.92c-0.02-1.18,0.91-2.14,2.06-2.16
							c6.37-0.1,9.56-0.15,15.94-0.25c1.16-0.02,2.11,0.88,2.13,2.02C264.5,335.76,264.59,338.84,264.85,344.99z"/>
						<path class="st16" d="M291.13,343.71c0.05,1.08-0.85,2-2.01,2.06c-6.37,0.32-9.55,0.47-15.92,0.79
							c-1.15,0.06-2.13-0.81-2.18-1.93c-0.26-6.08-0.35-9.12-0.45-15.21c-0.02-1.12,0.91-2.04,2.06-2.06
							c6.37-0.1,9.56-0.15,15.94-0.24c1.16-0.02,2.11,0.84,2.13,1.93C290.8,334.91,290.89,337.85,291.13,343.71z"/>
						<path class="st16" d="M317.42,342.44c0.04,1.03-0.86,1.91-2.01,1.96c-6.37,0.32-9.55,0.47-15.92,0.79
							c-1.16,0.06-2.14-0.76-2.18-1.83c-0.24-5.79-0.33-8.7-0.43-14.5c-0.02-1.07,0.91-1.95,2.06-1.97
							c6.38-0.1,9.56-0.15,15.94-0.25c1.16-0.02,2.11,0.81,2.13,1.84C317.1,334.07,317.19,336.87,317.42,342.44z"/>
						<path class="st16" d="M343.71,341.29c0.04,0.98-0.86,1.81-2.02,1.87c-6.37,0.32-9.55,0.48-15.92,0.79
							c-1.16,0.06-2.13-0.72-2.17-1.74c-0.23-5.51-0.31-8.27-0.41-13.79c-0.02-1.02,0.91-1.85,2.07-1.87
							c6.37-0.1,9.56-0.15,15.94-0.24c1.16-0.02,2.1,0.76,2.12,1.73C343.41,333.34,343.49,335.99,343.71,341.29z"/>
					</g>
					<path class="st16" d="M341.93,348c-6.36,0.38-9.54,0.56-15.91,0.95c-1.16,0.07-2.05,0.95-1.99,1.96
						c0.84,12.13,1.92,24.15,3.27,36.23c0.13,1.01,1.16,1.7,2.31,1.54c6.32-0.88,9.48-1.31,15.8-2.19c1.14-0.16,1.98-1.08,1.86-2.05
						c-1.43-11.56-2.47-23.16-3.14-34.79C344.07,348.66,343.09,347.93,341.93,348z"/>
				</g>
				<path class="st19" d="M353.97,316.85c0,0.66,0,1,0,1.66c-40.19-0.02-80.38-0.04-120.57-0.05c0-0.83,0-1.24,0-2.08
					C273.59,316.54,313.78,316.69,353.97,316.85z"/>
			</g>
		</g>
		<g>
			<path class="st18" d="M295.01,250.76c0,0,10.47-17.34,15.83-0.6L295.01,250.76z"/>
			<path class="st18" d="M325.98,252.98c0,0-1.57-2.89-1.64-3c-1-1.57-8.7-12.94-12.91-0.13L325.98,252.98z"/>
			<path class="st8" d="M303.73,251.66c0,0-8.97,1.31-8.97,12.25c0,10.93,7.65,11.37,7.65,11.37s9.84-1.31,9.84-11.81
				C312.26,252.97,306.35,251.66,303.73,251.66z"/>
			<path class="st8" d="M316.85,251.66c-1.97,1.55-4.81,5.91-3.28,14c1.53,8.09,4.59,12.62,7.66,12.62c3.06,0,5.4-8.04,4.6-13.31
				C324.5,256.47,320.12,249.09,316.85,251.66z"/>
			<path d="M303.51,261.28c-0.7-0.85-2.41,1.03-2.41,3.69c0,2.66,0.56,2.99,1.2,2.66C303.75,266.89,305.34,263.47,303.51,261.28z"/>
			<path d="M315.76,261.28c-1.01-1.49-1.75,5.41,0,7.22C317.17,269.96,318.08,264.71,315.76,261.28z"/>
			<g>
				<path d="M308.23,244.88c0,0-0.2-0.2-0.57-0.48c-0.2-0.13-0.42-0.31-0.72-0.45c-0.28-0.16-0.63-0.28-0.99-0.4
					c-0.19-0.04-0.38-0.09-0.58-0.13c-0.21-0.02-0.42-0.03-0.63-0.05c-0.43,0.03-0.89,0.03-1.34,0.19
					c-0.47,0.09-0.91,0.33-1.37,0.54c-0.46,0.22-0.87,0.55-1.32,0.81c-0.41,0.34-0.82,0.67-1.22,1c-0.37,0.37-0.74,0.73-1.1,1.09
					c-0.37,0.34-0.67,0.73-0.98,1.07c-0.31,0.35-0.61,0.67-0.88,0.98c-0.5,0.64-0.96,1.16-1.26,1.53c-0.31,0.37-0.5,0.57-0.5,0.57
					s0.12-0.25,0.34-0.68c0.23-0.42,0.54-1.04,0.96-1.76c0.23-0.35,0.48-0.72,0.76-1.11c0.28-0.38,0.54-0.82,0.91-1.2
					c0.35-0.39,0.7-0.8,1.09-1.2c0.42-0.36,0.86-0.73,1.29-1.1c0.5-0.29,0.96-0.64,1.48-0.88c0.53-0.23,1.05-0.45,1.6-0.53
					c0.53-0.15,1.09-0.1,1.59-0.07c0.25,0.05,0.49,0.1,0.73,0.14c0.22,0.08,0.44,0.17,0.64,0.25c0.39,0.19,0.74,0.39,0.99,0.63
					c0.28,0.21,0.47,0.44,0.64,0.61C308.11,244.63,308.23,244.88,308.23,244.88z"/>
			</g>
			<g>
				<path d="M314.71,244.44c0,0,0.05-0.05,0.17-0.13c0.11-0.08,0.29-0.2,0.53-0.3c0.24-0.12,0.55-0.21,0.92-0.29
					c0.19-0.02,0.39-0.05,0.6-0.07c0.21-0.01,0.43,0.02,0.67,0.03c0.24,0,0.47,0.09,0.71,0.13c0.25,0.04,0.5,0.14,0.74,0.24
					c0.51,0.18,0.99,0.47,1.47,0.79c0.47,0.34,0.93,0.71,1.37,1.12c0.4,0.45,0.84,0.87,1.21,1.34c0.35,0.49,0.72,0.97,1.05,1.46
					c0.31,0.5,0.59,1.01,0.88,1.49c0.3,0.47,0.49,0.98,0.71,1.44c0.22,0.46,0.42,0.9,0.59,1.31c0.31,0.83,0.53,1.54,0.7,2.03
					c0.16,0.49,0.24,0.78,0.24,0.78s-0.16-0.25-0.42-0.7c-0.25-0.45-0.63-1.08-1.04-1.86c-0.23-0.38-0.47-0.78-0.73-1.21
					c-0.27-0.42-0.5-0.9-0.81-1.34c-0.3-0.46-0.62-0.91-0.92-1.4c-0.32-0.46-0.69-0.91-1.03-1.37c-0.34-0.46-0.75-0.86-1.11-1.29
					c-0.4-0.38-0.79-0.77-1.2-1.1c-0.43-0.3-0.83-0.62-1.26-0.82c-0.21-0.12-0.42-0.22-0.63-0.29c-0.21-0.07-0.41-0.18-0.61-0.21
					c-0.21-0.04-0.4-0.08-0.59-0.12c-0.19-0.01-0.37-0.03-0.54-0.04c-0.34,0.01-0.65,0.04-0.89,0.1
					C314.98,244.3,314.71,244.44,314.71,244.44z"/>
			</g>
			<g>
				<path d="M286.58,276.37c0,0-0.04-0.26-0.06-0.71c0-0.23,0-0.51,0.02-0.83c0.02-0.32,0.07-0.68,0.17-1.08
					c0.12-0.39,0.25-0.83,0.57-1.23c0.27-0.43,0.83-0.78,1.43-0.83l0.45-0.01c0.15,0.01,0.28,0.06,0.42,0.09
					c0.14,0.04,0.29,0.07,0.42,0.12l0.37,0.18c0.51,0.22,0.94,0.61,1.35,0.88c0.41,0.31,0.82,0.62,1.22,0.93
					c0.4,0.33,0.8,0.56,1.19,0.81c0.39,0.25,0.76,0.5,1.15,0.67c0.38,0.19,0.74,0.4,1.09,0.51c0.35,0.14,0.67,0.27,0.96,0.33
					c0.29,0.09,0.56,0.14,0.78,0.15c0.44,0.06,0.7,0.02,0.7,0.02s-0.06,0.03-0.18,0.06c-0.12,0.03-0.29,0.1-0.52,0.11
					c-0.23,0.03-0.51,0.05-0.83,0.02c-0.33,0.01-0.69-0.06-1.08-0.15c-0.4-0.06-0.8-0.21-1.23-0.38c-0.21-0.08-0.44-0.16-0.66-0.26
					c-0.21-0.11-0.43-0.23-0.65-0.35c-0.43-0.25-0.92-0.47-1.31-0.79c-0.41-0.3-0.82-0.6-1.24-0.9c-0.44-0.3-0.77-0.63-1.19-0.82
					c-0.2-0.12-0.4-0.22-0.59-0.26c-0.1-0.03-0.2-0.08-0.29-0.09l-0.28-0.01c-0.35,0.02-0.68,0.14-0.93,0.43
					c-0.26,0.26-0.44,0.62-0.6,0.94c-0.14,0.34-0.25,0.66-0.35,0.96c-0.08,0.29-0.15,0.56-0.19,0.78
					C286.63,276.11,286.58,276.37,286.58,276.37z"/>
			</g>
			<path class="st20" d="M294.26,275.28c2.87,13.34,22.92,10.94,22.92,10.94c-16.42,8.75-11.57,15.96-11.57,15.96
				c-10.28,2.63-13.12-0.66-17.5-8.53c-4.37-7.87,1.84-21.04,1.84-21.04L294.26,275.28z"/>
			<g>
				<path d="M309.33,300.43c0,0-0.03,0.1-0.13,0.27c-0.1,0.17-0.26,0.4-0.51,0.61c-0.24,0.23-0.54,0.46-0.9,0.65
					c-0.34,0.23-0.75,0.35-1.15,0.51c-0.41,0.14-0.82,0.21-1.21,0.27c-0.39,0.08-0.76,0.07-1.08,0.06
					c-0.64-0.01-1.06-0.11-1.06-0.11s0.38-0.23,0.96-0.45c0.29-0.12,0.63-0.21,0.98-0.35c0.35-0.14,0.74-0.22,1.11-0.36
					c0.37-0.13,0.76-0.22,1.09-0.36c0.17-0.07,0.34-0.11,0.51-0.16c0.15-0.06,0.3-0.12,0.45-0.17c0.28-0.1,0.51-0.21,0.68-0.28
					C309.23,300.48,309.33,300.43,309.33,300.43z"/>
			</g>
			<g>
				<path d="M310.64,297.58c0,0,0.39,0.02,1.06,0.18c0.33,0.08,0.74,0.2,1.19,0.38c0.45,0.19,0.95,0.44,1.42,0.87
					c0.46,0.43,0.86,1.11,0.86,1.9c-0.02,0.19-0.04,0.39-0.06,0.58c-0.03,0.19-0.12,0.37-0.17,0.55c-0.1,0.39-0.34,0.69-0.54,1.03
					c-0.2,0.35-0.48,0.61-0.72,0.92l-0.19,0.23l-0.23,0.22l-0.42,0.39c-0.58,0.51-1.08,1.08-1.79,1.52l-1.01,0.69
					c-0.33,0.24-0.72,0.36-1.08,0.54c-0.37,0.16-0.71,0.36-1.09,0.46c-0.38,0.1-0.75,0.19-1.12,0.29c-0.36,0.11-0.73,0.16-1.09,0.18
					c-0.36,0.03-0.71,0.06-1.06,0.09c-0.68,0.01-1.33-0.05-1.92-0.07c-1.17-0.14-2.13-0.31-2.8-0.44c-0.67-0.13-1.05-0.22-1.05-0.22
					s0.39,0,1.07,0.03c0.68,0.05,1.65,0.03,2.81,0.06c0.57-0.03,1.19-0.06,1.85-0.1c0.32-0.05,0.65-0.1,0.99-0.16
					c0.34-0.04,0.68-0.09,1.01-0.22c0.33-0.1,0.67-0.2,1.02-0.31c0.34-0.11,0.65-0.31,0.99-0.45c0.32-0.17,0.68-0.29,0.98-0.51
					l0.91-0.63c0.63-0.36,1.18-0.96,1.76-1.45l0.43-0.38l0.19-0.17l0.18-0.2c0.23-0.27,0.51-0.51,0.68-0.79
					c0.18-0.28,0.4-0.55,0.5-0.84c0.06-0.14,0.14-0.28,0.18-0.42c0.03-0.14,0.05-0.29,0.08-0.43c0.03-0.56-0.18-1.07-0.53-1.48
					c-0.36-0.4-0.78-0.7-1.18-0.94c-0.4-0.24-0.77-0.4-1.08-0.53C311.02,297.69,310.64,297.58,310.64,297.58z"/>
			</g>
			<g>
				<path d="M323.32,283.08c0,0-0.34,0.64-1.14,1.36c-0.39,0.36-0.9,0.74-1.49,1.07c-0.58,0.35-1.25,0.62-1.93,0.85
					c-0.34,0.11-0.7,0.17-1.04,0.26c-0.35,0.07-0.7,0.1-1.03,0.14c-0.33,0.03-0.66,0.02-0.96,0.03c-0.31,0.02-0.6-0.04-0.86-0.06
					c-0.53-0.04-0.96-0.16-1.26-0.23c-0.3-0.08-0.47-0.13-0.47-0.13s0.18-0.02,0.48-0.07c0.3-0.04,0.73-0.06,1.24-0.15
					c0.25-0.04,0.53-0.06,0.81-0.12c0.28-0.05,0.58-0.1,0.9-0.16c0.61-0.14,1.26-0.28,1.89-0.49c0.31-0.11,0.64-0.19,0.94-0.32
					c0.3-0.12,0.61-0.22,0.89-0.36c0.58-0.24,1.1-0.51,1.55-0.75C322.74,283.49,323.32,283.08,323.32,283.08z"/>
			</g>
			<path class="st21" d="M305.61,302.17c-0.82,0.21-1.59,0.38-2.32,0.52c-8.42,1.56-11.16-1.8-15.18-9.04
				c-1.31-2.35-1.67-5.19-1.53-8c0,0,7.72-3.45,11.48,4.06c0.01,0.02,0.01,0.03,0.02,0.04c0.24,0.47,0.46,0.99,0.66,1.55
				c0.03,0.09,0.06,0.17,0.09,0.26c0,0,5.46-1.33,6.25,6.53C304.57,300.63,305.61,302.17,305.61,302.17z"/>
			<path class="st8" d="M317.1,286.25c0.02,0,0.03-0.01,0.05-0.01l-2.34,3.46c-1.11,0-2.16-0.03-3.14-0.08
				c-10.97-0.54-14.2-4.01-17.1-8.23c-3.16-4.59,0-4.95,0-4.95h0.01c3.75,12.03,22.6,9.76,22.6,9.76
				C317.15,286.23,317.12,286.24,317.1,286.25z"/>
			<g>
				<path class="st22" d="M298.83,296.76c0,0-0.09-0.47-0.14-1.15c-0.04-0.34-0.06-0.73-0.09-1.14c-0.03-0.41-0.04-0.85-0.08-1.29
					c-0.01-0.44-0.06-0.86-0.09-1.27c-0.03-0.2-0.05-0.39-0.06-0.58c-0.04-0.18-0.06-0.36-0.08-0.52c-0.07-0.31-0.1-0.6-0.16-0.79
					c-0.05-0.2-0.07-0.32-0.07-0.32s0.09,0.07,0.24,0.22c0.16,0.14,0.34,0.38,0.53,0.69c0.18,0.31,0.34,0.7,0.46,1.14
					c0.12,0.43,0.19,0.9,0.22,1.37c0.02,0.47,0.02,0.94-0.04,1.37c-0.05,0.43-0.13,0.83-0.22,1.17
					C299.07,296.34,298.83,296.76,298.83,296.76z"/>
			</g>
		</g>
		<path class="st14" d="M314.56,435.52c0,0-1.72,1.09-1.73,4.56c-0.01,3.48-0.01,5.58,1.73,7.35c1.74,1.77,19.32,10.24,37.55,10.24
			c0,0,9.32,0.11,17.79-4.83c0,0,1.41-1.25,0-3.53C368.5,447.03,344.41,423.37,314.56,435.52z"/>
		<path class="st5" d="M316.51,426.41c0,0-2.06,4.02-2.06,13.89c0,0-0.22,1.84,3.04,3.8c3.25,1.96,15.52,10.31,35.6,10.31
			c0,0,9.76,0.87,16.82-5.1c0,0-5.31-15.22-31.9-25.68C338,423.62,320.74,416.32,316.51,426.41z"/>
		<path class="st16" d="M327.91,449.56c0,0-1.03-26.47,11.53-25.35c0,0,9.03,3.67,13.99,7.33c0,0-12.77-6.27-13.34,21.65
			C340.09,453.19,333.13,451.99,327.91,449.56z"/>
		<path class="st10" d="M316.51,418.38c0,0-2.5,1.71-1.19,5.8c1.3,4.08,4.23,4.73,4.23,4.73s2.78,1.82,9.23-1.02
			c6.44-2.84,9.07-4.25,10.67-3.68c0,0,1.92-4.85-0.9-6.37C338.54,417.83,329.75,423.58,316.51,418.38z"/>
		<polygon class="st19" points="233.31,318.5 229.47,316.11 229.47,313.98 233.31,316.37 		"/>
		<g>
			<g>
				<path class="st8" d="M236.04,373.28c0,0,2.93,4.02,2.17,8.69c-0.75,4.66-1.76,5.03-2.9,9.9c-1.14,4.87-3.04,11.61-5.67,13.16
					c-2.63,1.55-8.01-0.51-8.48-2.8c0,0-2.57,2.26-5.74-1.7c0,0-2.58-0.47-3.54-2.75c-0.96-2.28-0.12-5.17,4.62-10.39
					c0,0-3.03-0.92-3.53-5.16c-0.24-1.99,0.62-3.34,3.67-3.64c2.7-0.27,5.51-1.84,8.62-2.62"/>
				<g>
					<path d="M223.29,381.22c0.5,0.27,0.99,0.55,1.46,0.87c0.47,0.32,0.92,0.67,1.36,1.04c0.43,0.38,0.85,0.78,1.21,1.23
						c0.38,0.44,0.7,0.93,0.98,1.45c0.55,1.03,0.91,2.21,0.88,3.42c-0.03,1.2-0.34,2.41-1.04,3.44c-0.18,0.26-0.37,0.51-0.66,0.74
						c-0.07,0.06-0.16,0.12-0.27,0.17c-0.07,0.03-0.11,0.05-0.22,0.08l-0.1,0.02c-0.12,0.03-0.4,0.05-0.55,0.03
						c-0.74-0.08-1.28-0.44-1.76-0.78c-0.96-0.71-1.77-1.49-2.59-2.28c-0.41-0.41-0.79-0.79-1.2-1.17c-0.4-0.34-0.82-0.69-1.28-0.97
						c-0.45-0.29-0.92-0.54-1.42-0.69c-0.48-0.16-1.05-0.23-1.47-0.14l-0.14,0.03l-0.07-0.03c-0.28-0.12-0.5-0.25-0.73-0.4
						c-0.22-0.15-0.44-0.31-0.64-0.49c-0.4-0.36-0.75-0.77-1.04-1.22c-0.15-0.22-0.27-0.46-0.39-0.69
						c-0.11-0.24-0.21-0.48-0.29-0.73c-0.17-0.49-0.24-1.02-0.29-1.53c0.22,1.01,0.62,1.97,1.25,2.75c0.31,0.39,0.68,0.73,1.07,1.03
						c0.2,0.15,0.4,0.29,0.61,0.41c0.21,0.12,0.44,0.23,0.64,0.31l-0.21,0c0.68-0.2,1.27-0.12,1.87,0.02
						c0.59,0.14,1.14,0.39,1.66,0.67c0.52,0.29,0.98,0.65,1.45,1.02c0.43,0.37,0.86,0.77,1.26,1.15c0.82,0.76,1.64,1.54,2.5,2.16
						c0.43,0.3,0.88,0.58,1.27,0.61c0.13,0.01,0.13,0.02,0.29-0.01l0.1-0.02c-0.04,0.01-0.01,0-0.02,0
						c0.02-0.02,0.05-0.02,0.09-0.06c0.15-0.12,0.32-0.32,0.46-0.52c0.57-0.84,0.91-1.88,0.97-2.92c0.05-1.05-0.15-2.12-0.61-3.1
						c-0.45-0.99-1.13-1.86-1.87-2.69C225.07,382.61,224.19,381.9,223.29,381.22z"/>
				</g>
				<g>
					<path d="M230.76,379.74c0-0.01-0.13,0.13-0.27,0.36c-0.06,0.13-0.14,0.28-0.22,0.45c-0.09,0.16-0.13,0.39-0.21,0.61
						c-0.08,0.22-0.15,0.46-0.2,0.73c-0.06,0.27-0.11,0.55-0.19,0.83c-0.05,0.29-0.07,0.61-0.13,0.91
						c-0.05,0.31-0.11,0.62-0.15,0.94c-0.06,0.64-0.12,1.28-0.21,1.88c-0.09,0.6-0.1,1.17-0.18,1.65c-0.12,0.97-0.29,1.63-0.29,1.63
						s-0.17-0.65-0.29-1.64c-0.05-0.5-0.14-1.07-0.12-1.7c0.01-0.62,0.06-1.29,0.1-1.96c0.12-0.66,0.25-1.33,0.42-1.94
						c0.11-0.3,0.23-0.59,0.34-0.86c0.09-0.28,0.24-0.52,0.39-0.73c0.15-0.22,0.25-0.42,0.41-0.57c0.15-0.15,0.28-0.28,0.39-0.38
						C230.61,379.79,230.76,379.74,230.76,379.74z"/>
				</g>
				<g>
					<path d="M215.51,399.28c-0.08-0.51-0.1-1.03-0.11-1.54c-0.02-0.52,0.02-1.03,0.06-1.55c0.1-1.03,0.31-2.05,0.61-3.05
						c0.16-0.5,0.34-0.99,0.55-1.47c0.09-0.25,0.22-0.48,0.34-0.71c0.13-0.23,0.24-0.47,0.38-0.69c0.28-0.45,0.58-0.88,0.92-1.29
						c0.31-0.43,0.73-0.76,1.1-1.14l0.22-0.23l0.24,0.19c0.61,0.49,1.21,1,1.78,1.55c0.55,0.55,1.15,1.09,1.56,1.77
						c-0.27-0.29-0.58-0.52-0.88-0.76c-0.31-0.23-0.63-0.46-0.95-0.68l-1.93-1.3l0.46-0.03c-0.3,0.39-0.64,0.74-0.9,1.16
						c-0.3,0.39-0.53,0.82-0.78,1.24c-0.13,0.21-0.23,0.44-0.34,0.65c-0.11,0.22-0.22,0.44-0.31,0.66c-0.21,0.45-0.39,0.9-0.55,1.37
						c-0.34,0.93-0.62,1.89-0.86,2.86C215.89,397.28,215.67,398.26,215.51,399.28z"/>
				</g>
				<path class="st8" d="M230.25,367.12c0,0,6.13-2.71,5.84,5.53c-0.29,8.24-12.19,8.21-10.8,1.37
					C226.67,367.18,230.25,367.12,230.25,367.12z"/>
				<g>
					<path class="st5" d="M234.33,321.39c-1.39-0.51-3.15-0.21-5.21,2.07c0,0-3.39,4.92-13.81,17.54
						c-10.42,12.61-11.05,13.67-10.14,16.72c0.91,3.05,5.34,10,22.88,17.55c0,0,5.75-0.84,4.53-6.35c0,0-7.3-5.33-9.83-8.88
						c-2.53-3.55-3.33-4.39-3.33-4.39s5.79-7.26,16.18-13.45"/>
					<g>
						<path class="st6" d="M217.3,359.23c0,0,2.35-4.73,5.32-7.03"/>
						<path class="st7" d="M217.3,359.23c0,0,0.1-0.57,0.42-1.36c0.15-0.4,0.37-0.84,0.62-1.31c0.24-0.47,0.57-0.93,0.88-1.41
							c0.36-0.44,0.7-0.89,1.07-1.27c0.39-0.37,0.75-0.71,1.09-0.97c0.72-0.48,1.24-0.72,1.24-0.72s-0.31,0.5-0.83,1.13
							c-0.24,0.34-0.51,0.73-0.82,1.13c-0.16,0.2-0.29,0.43-0.46,0.64c-0.16,0.21-0.32,0.43-0.48,0.65
							c-0.31,0.45-0.64,0.88-0.95,1.29c-0.3,0.42-0.61,0.79-0.86,1.12C217.69,358.81,217.3,359.23,217.3,359.23z"/>
					</g>
				</g>
				<path class="st12" d="M221.17,402.23c0,0-1.58-4.95,1.58-11.59"/>
				<g>
					<path d="M228.65,391.51c0,0,0.15,0.69,0.33,1.72c0.08,0.52,0.17,1.13,0.24,1.78c0.05,0.32,0.06,0.67,0.08,1.01
						c0.03,0.34,0.03,0.7,0.03,1.05c0.01,0.35-0.02,0.71-0.08,1.06c-0.03,0.36-0.14,0.69-0.23,1c-0.08,0.31-0.24,0.61-0.35,0.89
						c-0.14,0.27-0.27,0.52-0.41,0.74c-0.57,0.88-1.11,1.34-1.11,1.34s0.5-0.5,0.97-1.41c0.12-0.23,0.22-0.49,0.34-0.75
						c0.08-0.28,0.2-0.55,0.25-0.88c0.07-0.33,0.14-0.64,0.13-0.97c0.02-0.33,0.02-0.66-0.02-1c-0.03-0.34-0.05-0.67-0.12-1.01
						c-0.06-0.33-0.09-0.66-0.17-0.97c-0.12-0.63-0.26-1.21-0.39-1.71c-0.26-0.99-0.47-1.64-0.47-1.64L228.65,391.51z"/>
				</g>
			</g>
			<g>
				<path class="st23" d="M239.17,338.99c0,0-0.06,0.15-0.17,0.41c-0.14,0.24-0.37,0.57-0.67,0.97c-0.16,0.19-0.31,0.44-0.52,0.62
					c-0.2,0.19-0.41,0.39-0.65,0.59c-0.45,0.41-0.96,0.82-1.47,1.23c-0.26,0.2-0.55,0.34-0.82,0.51c-0.27,0.17-0.55,0.31-0.81,0.46
					c-0.53,0.29-1.04,0.54-1.48,0.74c-0.88,0.41-1.5,0.6-1.5,0.6s0.46-0.49,1.2-1.09c0.37-0.31,0.81-0.65,1.3-0.99
					c0.25-0.17,0.49-0.36,0.75-0.52c0.26-0.18,0.54-0.33,0.78-0.53c0.5-0.38,1-0.76,1.49-1.09c0.24-0.17,0.48-0.32,0.71-0.47
					c0.24-0.14,0.41-0.31,0.6-0.45c0.36-0.29,0.7-0.52,0.93-0.7C239.05,339.1,239.17,338.99,239.17,338.99z"/>
			</g>
			<g>
				<path class="st23" d="M238.22,325.84c0,0-0.35-0.54-0.88-1.29c-0.27-0.37-0.59-0.79-0.96-1.2c-0.18-0.21-0.39-0.4-0.59-0.59
					c-0.19-0.21-0.44-0.35-0.66-0.52c-0.24-0.12-0.46-0.31-0.72-0.37c-0.13-0.04-0.25-0.09-0.37-0.14
					c-0.13-0.04-0.26-0.05-0.38-0.07c-0.25-0.06-0.5-0.05-0.75-0.05c-0.25-0.02-0.48,0.03-0.7,0.07c-0.21,0.05-0.43,0.04-0.61,0.12
					c-0.18,0.05-0.34,0.1-0.47,0.14c-0.27,0.07-0.43,0.11-0.43,0.11s0.12-0.11,0.33-0.29c0.11-0.09,0.25-0.19,0.41-0.32
					c0.15-0.13,0.37-0.2,0.59-0.32c0.23-0.11,0.48-0.23,0.77-0.26c0.29-0.06,0.6-0.13,0.93-0.08c0.33,0,0.67,0.06,1,0.18
					c0.34,0.08,0.63,0.29,0.94,0.45c0.26,0.22,0.56,0.41,0.78,0.66c0.24,0.23,0.44,0.49,0.62,0.74c0.2,0.24,0.32,0.52,0.46,0.76
					c0.12,0.25,0.23,0.49,0.32,0.72C238.19,325.19,238.22,325.84,238.22,325.84z"/>
			</g>
		</g>
	</g>
	<path class="st24" d="M409.5,235.65c0,0-47.94-5.8-76.39,0.13c-28.45,5.92-89.52,26.79-108.59,20.19
		c-19.07-6.6-27.79-7.16-27.79-7.16s10.61-27.5,105.51-22.12C330.43,228.29,365.73,229.03,409.5,235.65z"/>
	<g>
		<path class="st25" d="M409.5,235.65c0,0-3.36-0.38-9.27-0.85c-2.95-0.23-6.54-0.49-10.65-0.71c-4.12-0.23-8.77-0.4-13.84-0.55
			c-5.07-0.08-10.57-0.18-16.37,0.03c-2.9,0.04-5.88,0.27-8.92,0.42c-3.03,0.27-6.14,0.48-9.27,0.93c-0.78,0.1-1.57,0.2-2.36,0.29
			c-0.78,0.14-1.57,0.28-2.36,0.41c-1.58,0.29-3.17,0.53-4.76,0.91c-3.19,0.7-6.39,1.47-9.62,2.3c-6.45,1.64-12.98,3.42-19.52,5.18
			c-13.08,3.49-26.18,6.95-38.61,9.6c-6.21,1.33-12.27,2.4-18.05,3.14c-2.9,0.33-5.72,0.63-8.47,0.72c-2.74,0.12-5.41,0.11-7.95-0.2
			c-0.32-0.04-0.63-0.07-0.95-0.1c-0.31-0.06-0.62-0.12-0.93-0.17c-0.62-0.12-1.23-0.2-1.82-0.4c-1.2-0.33-2.3-0.69-3.41-1.05
			c-2.2-0.71-4.29-1.39-6.25-2.03c-3.9-1.37-7.4-2.16-10.26-2.92c-1.43-0.38-2.71-0.71-3.85-0.89c-1.13-0.21-2.09-0.4-2.87-0.54
			c-0.78-0.17-1.38-0.22-1.79-0.27c-0.41-0.05-0.62-0.08-0.62-0.08s0.21,0.02,0.62,0.06c0.41,0.05,1.02,0.09,1.79,0.24
			c0.78,0.13,1.75,0.3,2.88,0.49c1.14,0.16,2.43,0.47,3.87,0.82c2.88,0.7,6.41,1.44,10.33,2.74c1.97,0.6,4.07,1.24,6.29,1.92
			c1.1,0.33,2.25,0.7,3.4,1c0.57,0.19,1.18,0.26,1.78,0.37l0.91,0.16l0.94,0.09c2.5,0.28,5.14,0.26,7.86,0.12
			c2.72-0.12,5.53-0.44,8.4-0.81c5.75-0.79,11.77-1.93,17.97-3.26c12.39-2.68,25.47-6.18,38.53-9.71c6.54-1.74,13.08-3.5,19.55-5.12
			c3.23-0.81,6.46-1.58,9.65-2.27c1.59-0.37,3.21-0.61,4.8-0.9c0.8-0.14,1.59-0.27,2.38-0.41c0.8-0.1,1.59-0.19,2.38-0.29
			c3.16-0.44,6.28-0.65,9.33-0.88c3.06-0.13,6.05-0.32,8.96-0.34c5.82-0.15,11.33,0,16.41,0.13c5.08,0.19,9.73,0.45,13.84,0.76
			c4.12,0.29,7.7,0.62,10.65,0.9C406.14,235.21,409.5,235.65,409.5,235.65z"/>
	</g>
	<polygon class="st11" points="283.19,206.01 274.72,206.53 270.35,213.8 267.24,205.9 258.97,203.99 265.52,198.59 264.78,190.14 
		271.94,194.7 279.75,191.39 277.63,199.6 	"/>
	<polygon class="st11" points="299.05,162.47 296.94,158.2 292.23,157.51 295.64,154.19 294.83,149.49 299.05,151.71 303.27,149.49 
		302.46,154.19 305.88,157.51 301.16,158.2 	"/>
	<g>
		<path class="st25" d="M288.83,132.31c0,0-0.42,0.47-1.15,1.3c-0.73,0.82-1.73,2.05-2.92,3.52c-0.6,0.73-1.23,1.54-1.87,2.41
			c-0.67,0.85-1.3,1.8-2.01,2.74c-0.68,0.96-1.37,1.97-2.06,2.99c-0.66,1.04-1.39,2.07-2.01,3.16c-0.65,1.07-1.32,2.14-1.9,3.23
			c-0.3,0.54-0.6,1.08-0.9,1.61c-0.27,0.54-0.54,1.07-0.81,1.6c-0.27,0.53-0.53,1.04-0.78,1.55c-0.24,0.52-0.47,1.02-0.69,1.51
			c-0.44,0.99-0.89,1.91-1.2,2.8c-0.33,0.88-0.65,1.69-0.94,2.4c-0.24,0.73-0.45,1.37-0.62,1.89c-0.35,1.05-0.56,1.65-0.56,1.65
			s0.13-0.62,0.37-1.7c0.13-0.54,0.28-1.2,0.45-1.95c0.22-0.74,0.47-1.58,0.77-2.48c0.27-0.92,0.66-1.87,1.06-2.89
			c0.2-0.51,0.41-1.03,0.62-1.57c0.24-0.52,0.49-1.05,0.74-1.59c0.49-1.09,1.04-2.19,1.65-3.28c0.58-1.11,1.24-2.2,1.89-3.29
			c0.64-1.1,1.39-2.13,2.07-3.18c0.71-1.03,1.45-2.02,2.15-2.97c0.73-0.94,1.44-1.85,2.15-2.67c0.7-0.84,1.38-1.61,2.02-2.32
			c1.27-1.42,2.41-2.52,3.21-3.29C288.34,132.71,288.83,132.31,288.83,132.31z"/>
	</g>
	<polygon class="st11" points="315.78,201.61 316.52,197.46 313.52,194.49 317.7,193.91 319.58,190.14 321.43,193.93 325.6,194.56 
		322.56,197.49 323.25,201.65 319.53,199.67 	"/>
	<polygon class="st11" points="248.32,166.67 247.01,167.32 246.8,168.76 245.79,167.71 244.35,167.96 245.03,166.67 244.35,165.38 
		245.79,165.63 246.8,164.59 247.01,166.03 	"/>
	<polygon class="st11" points="273.61,136.79 271.25,136.58 269.74,138.41 269.2,136.1 266.99,135.23 269.02,134.01 269.17,131.63 
		270.96,133.19 273.26,132.6 272.33,134.79 	"/>
</g>
<g>
	<g>
		<path class="st26" d="M80.3,310.96c0,0-6.06-1.41-6.74-4c-0.19-0.71-0.05-1.3-0.27-2.16c-0.36-1.38-3.88-3.12-2.8-4.62
			c0.26-0.36-0.25-3.6-0.25-3.6s-2.62-2.71-2.86-3.88c-0.21-1.05-1.62-4.11-2.82-7.29c-2.03-5.38-4.18-12.13-5.88-12.42
			c0,0-1.6-1.09-2.59,0.52c-0.99,1.61-4.24,1.44-4.24,1.44s-2.25-1.15-3-0.61c-0.75,0.54-15.08,14.35-16.51,21.56
			c-1.43,7.19,6.36-6.55,15.67-9.97c0,0-1.53,2.89-2.06,6.87c-0.54,3.98-3.11,6.61-3.64,9.54c-0.53,2.92-2.48,5.66-4.1,7.4
			c-1.62,1.74-1.65,3.6-1.63,4.84C36.58,314.58,46.19,320.53,80.3,310.96z"/>
		<path class="st26" d="M33.44,332.11c0,0-25.16,0.82-23.35-5.06c1.81-5.88,6.56-9.89,24.12-12.38c17.55-2.49,34.53-3.41,47.79-3.51
			c13.25-0.1,26.66,2.7,26.87,6.38c0,0,1.08,1.82-20.4,5.95C66.97,327.62,33.44,332.11,33.44,332.11z"/>
	</g>
	
		<linearGradient id="SVGID_2_" gradientUnits="userSpaceOnUse" x1="-11.2045" y1="427.2209" x2="-11.6754" y2="423.8461" gradientTransform="matrix(0.997 -0.0772 0.0772 0.997 46.4417 -101.1025)">
		<stop  offset="0" style="stop-color:#FFFFFF"/>
		<stop  offset="1" style="stop-color:#121C2C"/>
	</linearGradient>
	<path class="st27" d="M31,326.19c0,0,39.07-1.94,60.54-5.12c21.47-3.18,10.43-3.12,2.11-4.02c-20.69-2.23-29.17,3.74-41.99,5.97
		C40.42,324.96,39.43,325.34,31,326.19z"/>
	<path class="st12" d="M102.04,317.76c0,0-18.92-2.29-30.14,0.05c-11.22,2.34-35.32,10.57-42.84,7.97
		c-7.52-2.6-10.96-2.83-10.96-2.83"/>
</g>
<g>
	<g>
		<path class="st26" d="M522.7,310.96c0,0,6.06-1.41,6.74-4c0.19-0.71,0.05-1.3,0.27-2.16c0.35-1.38,3.88-3.12,2.8-4.62
			c-0.26-0.36,0.25-3.6,0.25-3.6s2.62-2.71,2.86-3.88c0.21-1.05,1.62-4.11,2.82-7.29c2.03-5.38,4.18-12.13,5.88-12.42
			c0,0,1.6-1.09,2.59,0.52c0.99,1.61,4.24,1.44,4.24,1.44s2.25-1.15,3-0.61c0.75,0.54,15.08,14.35,16.51,21.56
			c1.43,7.19-6.36-6.55-15.67-9.97c0,0,1.53,2.89,2.06,6.87c0.54,3.98,3.11,6.61,3.64,9.54c0.53,2.92,2.48,5.66,4.1,7.4
			c1.62,1.74,1.65,3.6,1.63,4.84C566.42,314.58,556.81,320.53,522.7,310.96z"/>
		<path class="st26" d="M569.56,332.11c0,0,25.16,0.82,23.35-5.06c-1.81-5.88-6.56-9.89-24.12-12.38
			c-17.55-2.49-34.53-3.41-47.79-3.51c-13.25-0.1-26.66,2.7-26.87,6.38c0,0-1.08,1.82,20.4,5.95
			C536.03,327.62,569.56,332.11,569.56,332.11z"/>
	</g>
	
		<linearGradient id="SVGID_3_" gradientUnits="userSpaceOnUse" x1="471.5659" y1="464.603" x2="471.0951" y2="461.2281" gradientTransform="matrix(-0.997 -0.0772 -0.0772 0.997 1040.7664 -101.1025)">
		<stop  offset="0" style="stop-color:#FFFFFF"/>
		<stop  offset="1" style="stop-color:#121C2C"/>
	</linearGradient>
	<path class="st28" d="M572,326.19c0,0-39.07-1.94-60.54-5.12c-21.47-3.18-10.43-3.12-2.11-4.02c20.69-2.23,29.17,3.74,41.99,5.97
		C562.58,324.96,563.57,325.34,572,326.19z"/>
	<path class="st12" d="M500.96,317.76c0,0,18.92-2.29,30.14,0.05c11.22,2.34,35.32,10.57,42.84,7.97c7.52-2.6,10.96-2.83,10.96-2.83
		"/>
</g>
</svg>
